<svg width="258" height="58" viewBox="0 0 258 58" fill="none" xmlns="http://www.w3.org/2000/svg">
<path d="M22.8281 34.6797H29.8359C29.6953 36.9766 29.0625 39.0156 27.9375 40.7969C26.8281 42.5781 25.2734 43.9688 23.2734 44.9688C21.2891 45.9688 18.8984 46.4688 16.1016 46.4688C13.9141 46.4688 11.9531 46.0938 10.2188 45.3438C8.48438 44.5781 7 43.4844 5.76562 42.0625C4.54688 40.6406 3.61719 38.9219 2.97656 36.9062C2.33594 34.8906 2.01562 32.6328 2.01562 30.1328V27.7656C2.01562 25.2656 2.34375 23.0078 3 20.9922C3.67188 18.9609 4.625 17.2344 5.85938 15.8125C7.10938 14.3906 8.60156 13.2969 10.3359 12.5312C12.0703 11.7656 14.0078 11.3828 16.1484 11.3828C18.9922 11.3828 21.3906 11.8984 23.3438 12.9297C25.3125 13.9609 26.8359 15.3828 27.9141 17.1953C29.0078 19.0078 29.6641 21.0703 29.8828 23.3828H22.8516C22.7734 22.0078 22.5 20.8438 22.0312 19.8906C21.5625 18.9219 20.8516 18.1953 19.8984 17.7109C18.9609 17.2109 17.7109 16.9609 16.1484 16.9609C14.9766 16.9609 13.9531 17.1797 13.0781 17.6172C12.2031 18.0547 11.4688 18.7188 10.875 19.6094C10.2812 20.5 9.83594 21.625 9.53906 22.9844C9.25781 24.3281 9.11719 25.9062 9.11719 27.7188V30.1328C9.11719 31.8984 9.25 33.4531 9.51562 34.7969C9.78125 36.125 10.1875 37.25 10.7344 38.1719C11.2969 39.0781 12.0156 39.7656 12.8906 40.2344C13.7812 40.6875 14.8516 40.9141 16.1016 40.9141C17.5703 40.9141 18.7812 40.6797 19.7344 40.2109C20.6875 39.7422 21.4141 39.0469 21.9141 38.125C22.4297 37.2031 22.7344 36.0547 22.8281 34.6797ZM47.7188 40.2812V28.9844C47.7188 28.1719 47.5859 27.4766 47.3203 26.8984C47.0547 26.3047 46.6406 25.8438 46.0781 25.5156C45.5312 25.1875 44.8203 25.0234 43.9453 25.0234C43.1953 25.0234 42.5469 25.1562 42 25.4219C41.4531 25.6719 41.0312 26.0391 40.7344 26.5234C40.4375 26.9922 40.2891 27.5469 40.2891 28.1875H33.5391C33.5391 27.1094 33.7891 26.0859 34.2891 25.1172C34.7891 24.1484 35.5156 23.2969 36.4688 22.5625C37.4219 21.8125 38.5547 21.2266 39.8672 20.8047C41.1953 20.3828 42.6797 20.1719 44.3203 20.1719C46.2891 20.1719 48.0391 20.5 49.5703 21.1562C51.1016 21.8125 52.3047 22.7969 53.1797 24.1094C54.0703 25.4219 54.5156 27.0625 54.5156 29.0312V39.8828C54.5156 41.2734 54.6016 42.4141 54.7734 43.3047C54.9453 44.1797 55.1953 44.9453 55.5234 45.6016V46H48.7031C48.375 45.3125 48.125 44.4531 47.9531 43.4219C47.7969 42.375 47.7188 41.3281 47.7188 40.2812ZM48.6094 30.5547L48.6562 34.375H44.8828C43.9922 34.375 43.2188 34.4766 42.5625 34.6797C41.9062 34.8828 41.3672 35.1719 40.9453 35.5469C40.5234 35.9062 40.2109 36.3281 40.0078 36.8125C39.8203 37.2969 39.7266 37.8281 39.7266 38.4062C39.7266 38.9844 39.8594 39.5078 40.125 39.9766C40.3906 40.4297 40.7734 40.7891 41.2734 41.0547C41.7734 41.3047 42.3594 41.4297 43.0312 41.4297C44.0469 41.4297 44.9297 41.2266 45.6797 40.8203C46.4297 40.4141 47.0078 39.9141 47.4141 39.3203C47.8359 38.7266 48.0547 38.1641 48.0703 37.6328L49.8516 40.4922C49.6016 41.1328 49.2578 41.7969 48.8203 42.4844C48.3984 43.1719 47.8594 43.8203 47.2031 44.4297C46.5469 45.0234 45.7578 45.5156 44.8359 45.9062C43.9141 46.2812 42.8203 46.4688 41.5547 46.4688C39.9453 46.4688 38.4844 46.1484 37.1719 45.5078C35.875 44.8516 34.8438 43.9531 34.0781 42.8125C33.3281 41.6562 32.9531 40.3438 32.9531 38.875C32.9531 37.5469 33.2031 36.3672 33.7031 35.3359C34.2031 34.3047 34.9375 33.4375 35.9062 32.7344C36.8906 32.0156 38.1172 31.4766 39.5859 31.1172C41.0547 30.7422 42.7578 30.5547 44.6953 30.5547H48.6094ZM66.4688 25.8906V46H59.6953V20.6406H66.0469L66.4688 25.8906ZM65.5312 32.4297H63.6562C63.6562 30.6641 63.8672 29.0391 64.2891 27.5547C64.7266 26.0547 65.3594 24.7578 66.1875 23.6641C67.0312 22.5547 68.0703 21.6953 69.3047 21.0859C70.5391 20.4766 71.9688 20.1719 73.5938 20.1719C74.7188 20.1719 75.75 20.3438 76.6875 20.6875C77.625 21.0156 78.4297 21.5391 79.1016 22.2578C79.7891 22.9609 80.3203 23.8828 80.6953 25.0234C81.0703 26.1484 81.2578 27.5 81.2578 29.0781V46H74.5078V29.8281C74.5078 28.6719 74.3516 27.7812 74.0391 27.1562C73.7266 26.5312 73.2812 26.0938 72.7031 25.8438C72.1406 25.5938 71.4609 25.4688 70.6641 25.4688C69.7891 25.4688 69.0234 25.6484 68.3672 26.0078C67.7266 26.3672 67.1953 26.8672 66.7734 27.5078C66.3516 28.1328 66.0391 28.8672 65.8359 29.7109C65.6328 30.5547 65.5312 31.4609 65.5312 32.4297ZM80.625 31.6562L78.2109 31.9609C78.2109 30.3047 78.4141 28.7656 78.8203 27.3438C79.2422 25.9219 79.8594 24.6719 80.6719 23.5938C81.5 22.5156 82.5234 21.6797 83.7422 21.0859C84.9609 20.4766 86.3672 20.1719 87.9609 20.1719C89.1797 20.1719 90.2891 20.3516 91.2891 20.7109C92.2891 21.0547 93.1406 21.6094 93.8438 22.375C94.5625 23.125 95.1094 24.1094 95.4844 25.3281C95.875 26.5469 96.0703 28.0391 96.0703 29.8047V46H89.2969V29.8047C89.2969 28.6328 89.1406 27.7422 88.8281 27.1328C88.5312 26.5078 88.0938 26.0781 87.5156 25.8438C86.9531 25.5938 86.2812 25.4688 85.5 25.4688C84.6875 25.4688 83.9766 25.6328 83.3672 25.9609C82.7578 26.2734 82.25 26.7109 81.8438 27.2734C81.4375 27.8359 81.1328 28.4922 80.9297 29.2422C80.7266 29.9766 80.625 30.7812 80.625 31.6562ZM108.047 25.5156V55.75H101.297V20.6406H107.555L108.047 25.5156ZM124.102 33.0391V33.5312C124.102 35.375 123.883 37.0859 123.445 38.6641C123.023 40.2422 122.398 41.6172 121.57 42.7891C120.742 43.9453 119.711 44.8516 118.477 45.5078C117.258 46.1484 115.852 46.4688 114.258 46.4688C112.711 46.4688 111.367 46.1562 110.227 45.5312C109.086 44.9062 108.125 44.0312 107.344 42.9062C106.578 41.7656 105.961 40.4453 105.492 38.9453C105.023 37.4453 104.664 35.8359 104.414 34.1172V32.8281C104.664 30.9844 105.023 29.2969 105.492 27.7656C105.961 26.2188 106.578 24.8828 107.344 23.7578C108.125 22.6172 109.078 21.7344 110.203 21.1094C111.344 20.4844 112.68 20.1719 114.211 20.1719C115.82 20.1719 117.234 20.4766 118.453 21.0859C119.688 21.6953 120.719 22.5703 121.547 23.7109C122.391 24.8516 123.023 26.2109 123.445 27.7891C123.883 29.3672 124.102 31.1172 124.102 33.0391ZM117.328 33.5312V33.0391C117.328 31.9609 117.234 30.9688 117.047 30.0625C116.875 29.1406 116.594 28.3359 116.203 27.6484C115.828 26.9609 115.328 26.4297 114.703 26.0547C114.094 25.6641 113.352 25.4688 112.477 25.4688C111.555 25.4688 110.766 25.6172 110.109 25.9141C109.469 26.2109 108.945 26.6406 108.539 27.2031C108.133 27.7656 107.828 28.4375 107.625 29.2188C107.422 30 107.297 30.8828 107.25 31.8672V35.125C107.328 36.2812 107.547 37.3203 107.906 38.2422C108.266 39.1484 108.82 39.8672 109.57 40.3984C110.32 40.9297 111.305 41.1953 112.523 41.1953C113.414 41.1953 114.164 41 114.773 40.6094C115.383 40.2031 115.875 39.6484 116.25 38.9453C116.641 38.2422 116.914 37.4297 117.07 36.5078C117.242 35.5859 117.328 34.5938 117.328 33.5312ZM135.047 26.1719V46H128.297V20.6406H134.648L135.047 26.1719ZM142.688 20.4766L142.57 26.7344C142.242 26.6875 141.844 26.6484 141.375 26.6172C140.922 26.5703 140.508 26.5469 140.133 26.5469C139.18 26.5469 138.352 26.6719 137.648 26.9219C136.961 27.1562 136.383 27.5078 135.914 27.9766C135.461 28.4453 135.117 29.0156 134.883 29.6875C134.664 30.3594 134.539 31.125 134.508 31.9844L133.148 31.5625C133.148 29.9219 133.312 28.4141 133.641 27.0391C133.969 25.6484 134.445 24.4375 135.07 23.4062C135.711 22.375 136.492 21.5781 137.414 21.0156C138.336 20.4531 139.391 20.1719 140.578 20.1719C140.953 20.1719 141.336 20.2031 141.727 20.2656C142.117 20.3125 142.438 20.3828 142.688 20.4766ZM157.078 46.4688C155.109 46.4688 153.344 46.1562 151.781 45.5312C150.219 44.8906 148.891 44.0078 147.797 42.8828C146.719 41.7578 145.891 40.4531 145.312 38.9688C144.734 37.4688 144.445 35.875 144.445 34.1875V33.25C144.445 31.3281 144.719 29.5703 145.266 27.9766C145.812 26.3828 146.594 25 147.609 23.8281C148.641 22.6562 149.891 21.7578 151.359 21.1328C152.828 20.4922 154.484 20.1719 156.328 20.1719C158.125 20.1719 159.719 20.4688 161.109 21.0625C162.5 21.6562 163.664 22.5 164.602 23.5938C165.555 24.6875 166.273 26 166.758 27.5312C167.242 29.0469 167.484 30.7344 167.484 32.5938V35.4062H147.328V30.9062H160.852V30.3906C160.852 29.4531 160.68 28.6172 160.336 27.8828C160.008 27.1328 159.508 26.5391 158.836 26.1016C158.164 25.6641 157.305 25.4453 156.258 25.4453C155.367 25.4453 154.602 25.6406 153.961 26.0312C153.32 26.4219 152.797 26.9688 152.391 27.6719C152 28.375 151.703 29.2031 151.5 30.1562C151.312 31.0938 151.219 32.125 151.219 33.25V34.1875C151.219 35.2031 151.359 36.1406 151.641 37C151.938 37.8594 152.352 38.6016 152.883 39.2266C153.43 39.8516 154.086 40.3359 154.852 40.6797C155.633 41.0234 156.516 41.1953 157.5 41.1953C158.719 41.1953 159.852 40.9609 160.898 40.4922C161.961 40.0078 162.875 39.2812 163.641 38.3125L166.922 41.875C166.391 42.6406 165.664 43.375 164.742 44.0781C163.836 44.7812 162.742 45.3594 161.461 45.8125C160.18 46.25 158.719 46.4688 157.078 46.4688ZM178.078 25.5156V55.75H171.328V20.6406H177.586L178.078 25.5156ZM194.133 33.0391V33.5312C194.133 35.375 193.914 37.0859 193.477 38.6641C193.055 40.2422 192.43 41.6172 191.602 42.7891C190.773 43.9453 189.742 44.8516 188.508 45.5078C187.289 46.1484 185.883 46.4688 184.289 46.4688C182.742 46.4688 181.398 46.1562 180.258 45.5312C179.117 44.9062 178.156 44.0312 177.375 42.9062C176.609 41.7656 175.992 40.4453 175.523 38.9453C175.055 37.4453 174.695 35.8359 174.445 34.1172V32.8281C174.695 30.9844 175.055 29.2969 175.523 27.7656C175.992 26.2188 176.609 24.8828 177.375 23.7578C178.156 22.6172 179.109 21.7344 180.234 21.1094C181.375 20.4844 182.711 20.1719 184.242 20.1719C185.852 20.1719 187.266 20.4766 188.484 21.0859C189.719 21.6953 190.75 22.5703 191.578 23.7109C192.422 24.8516 193.055 26.2109 193.477 27.7891C193.914 29.3672 194.133 31.1172 194.133 33.0391ZM187.359 33.5312V33.0391C187.359 31.9609 187.266 30.9688 187.078 30.0625C186.906 29.1406 186.625 28.3359 186.234 27.6484C185.859 26.9609 185.359 26.4297 184.734 26.0547C184.125 25.6641 183.383 25.4688 182.508 25.4688C181.586 25.4688 180.797 25.6172 180.141 25.9141C179.5 26.2109 178.977 26.6406 178.57 27.2031C178.164 27.7656 177.859 28.4375 177.656 29.2188C177.453 30 177.328 30.8828 177.281 31.8672V35.125C177.359 36.2812 177.578 37.3203 177.938 38.2422C178.297 39.1484 178.852 39.8672 179.602 40.3984C180.352 40.9297 181.336 41.1953 182.555 41.1953C183.445 41.1953 184.195 41 184.805 40.6094C185.414 40.2031 185.906 39.6484 186.281 38.9453C186.672 38.2422 186.945 37.4297 187.102 36.5078C187.273 35.5859 187.359 34.5938 187.359 33.5312Z" fill="black"/>
<path d="M205.472 42L222 8.94427L238.528 42H205.472Z" stroke="#E4CC49" stroke-width="8"/>
</svg>
